/* XPM */
static char *top_left_active[] = {
/* columns rows colors chars-per-pixel */
"8 29 4 1 ",
"  c #171711",
". c #181810",
"X c #181811",
"o c None",
/* pixels */
"oooX XXX",
"oXXXXXXX",
"oXXXXXXX",
"XXXXXXXX",
"XXXXXXXX",
".XXXXXXX",
"XXXXXXXX",
"XXXXXXXX",
"XXXXXXXX",
"XXXXXXXX",
"XXXXXXXX",
"XXXXXXXX",
"XXXXXXXX",
"XXXXXXXX",
"XXXXXXXX",
"XXXXXXXX",
"XXXXXXXX",
"XXXXXXXX",
"XXXXXXXX",
"XXXXXXXX",
"XXXXXXXX",
"XXXXXXXX",
"XXXXXXXX",
"XXXXXXXX",
"XXXXXXXX",
"XXXXXXXX",
"XXXXXXXX",
"XXXXXXXX",
"XXXXXXXX"
};
