/* XPM */
static char *bottom_left_inactive[] = {
/* columns rows colors chars-per-pixel */
"16 16 3 1 ",
"  c #F5F5EF",
". c #F5F5F0",
"X c None",
/* pixels */
".....XXXXXXXXXXX",
".....XXXXXXXXXXX",
".....XXXXXXXXXXX",
".....XXXXXXXXXXX",
".....XXXXXXXXXXX",
".....XXXXXXXXXXX",
".....XXXXXXXXXXX",
".....XXXXXXXXXXX",
".....XXXXXXXXXXX",
".....XXXXXXXXXXX",
"..... XXXXXXXXXX",
"................",
"................",
"X...............",
"X...............",
"XXX............."
};
