/* XPM */
static char *top_right_active[] = {
/* columns rows colors chars-per-pixel */
"8 29 6 1 ",
"  c #F4F4EF",
". c #F5F5EF",
"X c #F5F5F0",
"o c #F4F4F1",
"O c #F5F5F1",
"+ c None",
/* pixels */
"XXXXX+++",
"XXXXXXo+",
"XXXXXX.+",
"XXXXXXXO",
"XXXXXXXX",
"XXXXXXX ",
"XXXXXXXX",
"XXXXXXXX",
"XXXXXXXX",
"XXXXXXXX",
"XXXXXXXX",
"XXXXXXXX",
"XXXXXXXX",
"XXXXXXXX",
"XXXXXXXX",
"XXXXXXXX",
"XXXXXXXX",
"XXXXXXXX",
"XXXXXXXX",
"XXXXXXXX",
"XXXXXXXX",
"XXXXXXXX",
"XXXXXXXX",
"XXXXXXXX",
"XXXXXXXX",
"XXXXXXXX",
"XXXXXXXX",
"XXXXXXXX",
"XXXXXXXX"
};
