/* XPM */
static char *top_left_inactive[] = {
/* columns rows colors chars-per-pixel */
"8 29 6 1 ",
"  c #F4F4EF",
". c #F5F5EF",
"X c #F4F4F0",
"o c #F5F5F0",
"O c #F5F5F1",
"+ c None",
/* pixels */
"+++Ooooo",
"+ooooooo",
"+.oooooo",
"Xooooooo",
"Xooooooo",
" ooooooo",
"oooooooo",
"oooooooo",
"oooooooo",
"oooooooo",
"oooooooo",
"oooooooo",
"oooooooo",
"oooooooo",
"oooooooo",
"oooooooo",
"oooooooo",
"oooooooo",
"oooooooo",
"oooooooo",
"oooooooo",
"oooooooo",
"oooooooo",
"oooooooo",
"oooooooo",
"oooooooo",
"oooooooo",
"oooooooo",
"oooooooo"
};
