/* XPM */
static char *bottom_right_active[] = {
/* columns rows colors chars-per-pixel */
"16 16 4 1 ",
"  c #171712",
". c #181810",
"X c #181811",
"o c None",
/* pixels */
"oooooooooooXXXXX",
"oooooooooooXXXXX",
"oooooooooooXXXXX",
"oooooooooooXXXXX",
"oooooooooooXXXXX",
"oooooooooooXXXXX",
"oooooooooooXXXXX",
"oooooooooooXXXXX",
"oooooooooooXXXXX",
"oooooooooooXXXXX",
"ooooooooooXXXXXX",
"XXXXXXXXXXXXXXXX",
"XXXXXXXXXXXXXXX.",
"XXXXXXXXXXXXXXXo",
"XXXXXXXXXXXXXX o",
"XXXXXXXXXXXX.ooo"
};
