/* XPM */
static char *top_right_active[] = {
/* columns rows colors chars-per-pixel */
"8 29 6 1 ",
"  c #171711",
". c #181810",
"X c #181811",
"o c #191911",
"O c #191912",
"+ c None",
/* pixels */
"XXX o+++",
"XXXXXXO+",
"XXXXXXX+",
"XXXXXXXX",
"XXXXXXXX",
"XXXXXXX.",
"XXXXXXXX",
"XXXXXXXX",
"XXXXXXXX",
"XXXXXXXX",
"XXXXXXXX",
"XXXXXXXX",
"XXXXXXXX",
"XXXXXXXX",
"XXXXXXXX",
"XXXXXXXX",
"XXXXXXXX",
"XXXXXXXX",
"XXXXXXXX",
"XXXXXXXX",
"XXXXXXXX",
"XXXXXXXX",
"XXXXXXXX",
"XXXXXXXX",
"XXXXXXXX",
"XXXXXXXX",
"XXXXXXXX",
"XXXXXXXX",
"XXXXXXXX"
};
