/* XPM */
static char *bottom_right_active[] = {
/* columns rows colors chars-per-pixel */
"16 16 2 1 ",
"  c #F5F5F0",
". c None",
/* pixels */
"...........     ",
"...........     ",
"...........     ",
"...........     ",
"...........     ",
"...........     ",
"...........     ",
"...........     ",
"...........     ",
"...........     ",
"..........      ",
"                ",
"                ",
"               .",
"               .",
"             ..."
};
