<?xml version="1.0" encoding="UTF-8" standalone="no"?>
<svg
   xmlns:dc="http://purl.org/dc/elements/1.1/"
   xmlns:cc="http://creativecommons.org/ns#"
   xmlns:rdf="http://www.w3.org/1999/02/22-rdf-syntax-ns#"
   xmlns:svg="http://www.w3.org/2000/svg"
   xmlns="http://www.w3.org/2000/svg"
   xmlns:sodipodi="http://sodipodi.sourceforge.net/DTD/sodipodi-0.dtd"
   xmlns:inkscape="http://www.inkscape.org/namespaces/inkscape"
   width="46"
   height="22"
   viewBox="0 0 12.170833 5.8208335"
   version="1.1"
   id="svg1132"
   inkscape:version="1.0.2 (e86c870879, 2021-01-15)"
   sodipodi:docname="switch-off-dark.svg">
  <defs
     id="defs1126" />
  <sodipodi:namedview
     id="base"
     pagecolor="#5c5c5c"
     bordercolor="#666666"
     borderopacity="1.0"
     inkscape:pageopacity="0"
     inkscape:pageshadow="2"
     inkscape:zoom="7.9195959"
     inkscape:cx="19.85331"
     inkscape:cy="25.079829"
     inkscape:document-units="mm"
     inkscape:current-layer="layer1"
     inkscape:document-rotation="0"
     showgrid="false"
     units="px"
     inkscape:window-width="1920"
     inkscape:window-height="1027"
     inkscape:window-x="0"
     inkscape:window-y="25"
     inkscape:window-maximized="1" />
  <metadata
     id="metadata1129">
    <rdf:RDF>
      <cc:Work
         rdf:about="">
        <dc:format>image/svg+xml</dc:format>
        <dc:type
           rdf:resource="http://purl.org/dc/dcmitype/StillImage" />
        <dc:title></dc:title>
      </cc:Work>
    </rdf:RDF>
  </metadata>
  <g
     inkscape:label="Layer 1"
     inkscape:groupmode="layer"
     id="layer1">
    <g
       transform="matrix(0.23405449,0,0,0.24253472,-235.22476,-79.55139)"
       style="display:inline"
       id="switch-dark"
       inkscape:label="#g4820">
      <g
         id="layer1-9-13"
         inkscape:label="Layer 1"
         transform="matrix(-1,0,0,1,1177,420)">
        <g
           style="display:inline"
           transform="translate(120,-116.99998)"
           inkscape:label="Layer 1"
           id="switch-active-2-2">
          <g
             id="g3900-12-8"
             transform="translate(0,-1004.3622)">
            <rect
               style="display:inline;opacity:0;fill:#434343;fill-opacity:1;stroke:none;stroke-width:1;stroke-linecap:butt;stroke-linejoin:miter;stroke-miterlimit:4;stroke-dasharray:none;stroke-dashoffset:0;stroke-opacity:1"
               id="rect5465-3-32-7"
               width="52"
               height="24"
               x="0"
               y="1029.3622" />
            <rect
               style="fill:#161617;fill-opacity:1;fill-rule:nonzero;stroke:none"
               id="rect2987-07-4"
               width="50"
               height="20"
               x="1"
               y="1031.3622"
               ry="11"
               rx="11" />
            <circle
               style="fill:#2c2a21;fill-opacity:1;fill-rule:nonzero;stroke:none"
               id="path3759-7-4"
               cx="41"
               cy="1041.3622"
               r="9" />
          </g>
        </g>
      </g>
      <path
         inkscape:connector-curvature="0"
         d="m 1043.0028,337 h 0.75 c 0.01,-9e-5 0.016,-3.5e-4 0.023,0 0.1912,0.008 0.3824,0.0964 0.5156,0.23437 l 1.711,1.71094 1.7343,-1.71094 c 0.1993,-0.17287 0.335,-0.22912 0.5157,-0.23437 h 0.75 v 0.75 c 0,0.21485 -0.026,0.41298 -0.1875,0.5625 l -1.711,1.71093 1.6875,1.6875 c 0.1412,0.14113 0.211,0.34009 0.211,0.53907 V 343 h -0.75 c -0.199,-10e-6 -0.398,-0.0698 -0.5391,-0.21094 l -1.7109,-1.71094 -1.711,1.71094 c -0.1411,0.14114 -0.3401,0.21094 -0.539,0.21094 h -0.75 v -0.75 c 0,-0.19897 0.07,-0.39794 0.2109,-0.53907 l 1.7109,-1.6875 -1.7109,-1.71093 c -0.1581,-0.14598 -0.2274,-0.35194 -0.2109,-0.5625 V 337 Z"
         id="path10839-9-8-2-2-5-46"
         style="color:#bebebe;font-style:normal;font-variant:normal;font-weight:normal;font-stretch:normal;font-size:medium;line-height:normal;font-family:'Andale Mono';-inkscape-font-specification:'Andale Mono';text-indent:0;text-align:start;text-decoration:none;text-decoration-line:none;letter-spacing:normal;word-spacing:normal;text-transform:none;writing-mode:lr-tb;direction:ltr;text-anchor:start;display:inline;overflow:visible;visibility:visible;opacity:1;fill:#2c2a21;fill-opacity:1;fill-rule:nonzero;stroke:none;stroke-width:1.78125;marker:none;enable-background:new" />
    </g>
  </g>
</svg>
